/* XPM */
static char *_2f47e4363de451cb4c17824bdaf62aa[] = {
/* columns rows colors chars-per-pixel */
"64 64 234 2 ",
"   c None",
".  c #0D0D0D",
"X  c #01030C",
"o  c #060A14",
"O  c #0B0D13",
"+  c #070B17",
"@  c #151415",
"#  c #191919",
"$  c #18181A",
"%  c #0F1015",
"&  c #282417",
"*  c #362D16",
"=  c #191B27",
"-  c #151837",
";  c #0E113C",
":  c #1C342A",
">  c #1D302E",
",  c #232323",
"<  c #2C2B2B",
"1  c #262729",
"2  c #342B27",
"3  c #25342E",
"4  c #27332F",
"5  c #252532",
"6  c #22243B",
"7  c #223C33",
"8  c #253731",
"9  c gray20",
"0  c #3B3B3B",
"q  c #383638",
"w  c #30302C",
"e  c #463B1A",
"r  c #502F23",
"t  c #782D24",
"y  c #7A3229",
"u  c #66312A",
"i  c #6C271F",
"p  c #184434",
"a  c #194D3B",
"s  c #174737",
"d  c #15523E",
"f  c #18513E",
"g  c #0C4C37",
"h  c #214439",
"j  c #2E593A",
"k  c #554619",
"l  c #66531C",
"z  c #7E631D",
"x  c #6B5923",
"c  c #52763F",
"v  c #76662E",
"b  c #141848",
"n  c #151B56",
"m  c #0E1347",
"M  c #1E2350",
"N  c #171E67",
"B  c #0E1767",
"V  c #1B236C",
"C  c #1A2164",
"Z  c #1D2574",
"A  c #1E267A",
"S  c #1F287B",
"D  c #373D74",
"F  c #1A5542",
"G  c #155943",
"H  c #195B45",
"J  c #195E49",
"K  c #125343",
"L  c #135344",
"P  c #265949",
"I  c #3D4245",
"U  c #19644C",
"Y  c #15664D",
"T  c #0A6752",
"R  c #1A6D53",
"E  c #136A52",
"W  c #1B7156",
"Q  c #1B755A",
"!  c #1B7B5E",
"~  c #157559",
"^  c #0E7257",
"/  c #306F54",
"(  c #137C62",
")  c #1C7E61",
"_  c #0D7763",
"`  c #2F7E64",
"'  c #585A5A",
"]  c #48494E",
"[  c #5E7F43",
"{  c #59796F",
"}  c #65636B",
"|  c #53586B",
" . c #8B362A",
".. c #98372A",
"X. c #89362B",
"o. c #A63829",
"O. c #B03E2E",
"+. c #9A761E",
"@. c #8F6818",
"#. c #A77E1E",
"$. c #AD4233",
"%. c #A04233",
"&. c #B84938",
"*. c #BE503E",
"=. c #846E26",
"-. c #8A7526",
";. c #9F7A20",
":. c #A57F20",
">. c #C34E3B",
",. c #CA4B38",
"<. c #C3513F",
"1. c #C9513E",
"2. c #964E46",
"3. c #A85144",
"4. c #BB6253",
"5. c #AB746C",
"6. c #C55340",
"7. c #C95542",
"8. c #C65C4D",
"9. c #D45A46",
"0. c #CF6555",
"q. c #CB7567",
"w. c #7B8336",
"e. c #2D835C",
"r. c #0E8669",
"t. c #158364",
"y. c #1C8365",
"u. c #1C8768",
"i. c #1E8B6C",
"p. c #178469",
"a. c #1D906F",
"s. c #0D8871",
"d. c #1E9372",
"f. c #1C9775",
"g. c #248768",
"h. c #2A9575",
"j. c #368A6D",
"k. c #509256",
"l. c #769547",
"z. c #758D41",
"x. c #568575",
"c. c #54947F",
"v. c #479179",
"b. c #6D877F",
"n. c #AF841F",
"m. c #938C33",
"M. c #AA8823",
"N. c #BA9728",
"B. c #AD932C",
"V. c #BBA936",
"C. c #ACA63B",
"Z. c #C79B24",
"A. c #C7A229",
"S. c #CCA62B",
"D. c #CEAA2D",
"F. c #CAA427",
"G. c #D3AC2C",
"H. c #D9A926",
"J. c #DCB42D",
"K. c #D4B02F",
"L. c #CAAF32",
"P. c #E2B72C",
"I. c #E4BD30",
"U. c #E1AE27",
"Y. c #C28F1D",
"T. c #8C9C43",
"R. c #AD9351",
"E. c #82807D",
"W. c #A2A868",
"Q. c #DAB445",
"!. c #D3887C",
"~. c #D4B564",
"^. c #E4C14D",
"/. c #182487",
"(. c #1B2A97",
"). c #212C84",
"_. c #222D8B",
"`. c #25318E",
"'. c #222F94",
"]. c #253193",
"[. c #26339A",
"{. c #28369E",
"}. c #293596",
"|. c #323D93",
" X c #2937A1",
".X c #2736A4",
"XX c #3744AB",
"oX c #39449D",
"OX c #4D5494",
"+X c #4A57B3",
"@X c #525CAA",
"#X c #5D66AC",
"$X c #7078B1",
"%X c #666B8D",
"&X c #3E9E8A",
"*X c #35A181",
"=X c #549882",
"-X c #79AA98",
";X c #70A996",
":X c #7B80A3",
">X c #52A08A",
",X c #888A8B",
"<X c #9A9898",
"1X c #948F8B",
"2X c #AD9E99",
"3X c #81A79C",
"4X c #8F91A7",
"5X c #A19FA0",
"6X c #93B3AA",
"7X c #A7A7A7",
"8X c #BDBDBD",
"9X c #B5B6B6",
"0X c #AFB3B0",
"qX c #C5BBBA",
"wX c #D1B3AD",
"eX c #CB9F99",
"rX c #A6C3BB",
"tX c #CAC1BC",
"yX c #ABAEC7",
"uX c #BEC7C7",
"iX c #C2C2C3",
"pX c #CCCBCC",
"aX c #C7C8C8",
"sX c #D2CDCE",
"dX c #D2D1CE",
"fX c #CFD4D5",
"gX c #D3D1D2",
"hX c #DED9D9",
"jX c #D9D8D7",
"kX c #CACED1",
"lX c #E4D8D9",
"zX c #E5E3DD",
"xX c #DCDCE0",
"cX c #E6E6E5",
/* pixels */
"                                                                                                                                ",
"                                                                                                                                ",
"                                                                                                                                ",
"                                                                                                                                ",
"                                                                                                                                ",
"                                                                                                                                ",
"                                                                                            0.                                  ",
"                                                                                          2.O.                                  ",
"                                                                                        8... .y                                 ",
"                                                                                    eX0.&... .r                                 ",
"                                                                                  q.9.,.>.O...r                                 ",
"                                                                              q.0.1.,.7.3.&...                                  ",
"                                                                        !.q.8.6.7.7.6.<.<.*...                                  ",
"                                                                    fXeX6.O.o.$.>.9.6.*.<.7. .                                  ",
"                                                              9XaXcXsXuXeX3.o.O.&.>.6.6.<.6.u           8.                      ",
"                                                        ;Xx.` { <XsXgX8XuXuX5.o.o.&.6.6.6.%.          %.3.                      ",
"                                                  -X>Xj.g.W Y g P ,XjXgX8XiXkX2X%.o.*.7.<.u           y $.                      ",
"                                              x.v.h.p.~ Q Q W U d s c.aXgXiXiXiX0X5.$.>.X.            y  . .                    ",
"                                        -X=X/ a Y p.i.) Q Q ! R U d g y.6XpXiXiX8X0X2X2.2           3...t t                     ",
"                                      =X` ! R a a ! g.i.! ! ! Q R G a G r.=X9XsXuX8X,XI             8.&. .t                     ",
"                                  ~.W.t.T Q ! U s F ) i.u.) ! ! W R G s R r.g.6XkX,X9             0.9.<.$.t                     ",
"                                R.B.G.C./ ^ ! ! H p U u.i.y.! ! Q R U f a ! f.W ' 9             5.9.>.<.<.O.                    ",
"                              Q.n.@.N.J.D.c ^ ( R f a Q i.i.) ! ! Q R H f F U 7                 lXq.,.>.>.,.t                   ",
"                            q l N.#.+.D.G.Z.m.g._ U s F y.g.u.! ) ! ! U p , <               0XgXsXgXtXwXwXwX1X                  ",
"                          q @ o & z +.Z.K.D.Z.B.k._ G p U u.i.i.y.! F 8 <                 7X9X7X8XpXfXxXfXxX7X                  ",
"                        q # @ # . o & z K.J.N.Z.S.z.R d d ~ i.Q F 3 <                   =Xj.{ <X7XuXgXzXhXzX<X                  ",
"                      q , @ # # # @ . X e A.J.N.Z.H.V.c 7 p h 9                     -Xv.g.~ T P b.2X7X6XrXuX,X                  ",
"                      1 @ # # # # @ @ . X # -.G.Z.N.+.l < <                       =X*X( ! y.Q Y F P U ~ r.f.P                   ",
"                    1 # # # # # # @ @ @ . O O k x e 9                       -Xx./ f ) i.) ) ! ! W G f J W ! h                   ",
"                    , # @ # # # # # @ @ . . # =                         -X=Xj.U d s J i.i.) ) ! ) R F a J U                     ",
"                    # # # @ # # # @ @ @ , 9                         ;X&Xh.! ~ R J a s W d.y.) y.) ! E F f :                     ",
"                  # # # @ # # @ @ # ,                         W.R.Q.V.k.p.y.) Q R H s a y.i.y.y.) y.) W G ,                     ",
"                  @ @ # # @ @ # <                       | R.^.N.@.+.H.V.j.p.y.y.W U F p J i.i.) y.y.g.! a                       ",
"                  . @ @ @ @ ,                       ] q v G.S.N.+.@.w.i.a.u.y.y.) R U a s W d.i.p.y.y.W 3                       ",
"                  @ . . @ 9                   ' I v =.M.S.D.D.G.N.x d ~ a.g.u.u.y.) R J s a y.d.p.i.! 7                         ",
"                  @ . #                   ' q o k I.J.G.A.A.H.V.z.d g H y.i.i.u.i.) ! U F 7 G i.h.! h                           ",
"                , @ #                 ' q # X & :.S.K.S.S.H.m.i.s.! f p R u.g.i.i.i.) W U f 7 R ~ h                             ",
"                @ @               } ] # @ o * M.+.N.K.H.S.z.r.p.g.u.R s d y.i.a.g.i.y.! W Y p : 4                               ",
"                @ 1             ] < . @ o k A.N.+.#.L.k.e.( ! p.a.a.y.U s R i.a.i.a.a.y.Q d 3 <                                 ",
"                              ] , % o & -.J.G.Z.n.+.` s.t.y.! u.h.a.i.! f f ! a.d.i.y.J 7 <                                     ",
"                            0 = o & v G.I.G.G.H.B.j Y g.i.p.W u.f.a.h.i.R d U ! R F 8 <                                         ",
"                          9 = * =.A.I.J.K.K.H.B.Q G F ) i.i.Q ! f.f.f.a.W 7 : 3 <                                               ",
"                          + * D.I.K.D.K.J.P.T.p.( R f R i.i.y.W u.W H h 4 w                                                     ",
"                          e M.Z.D.D.G.U.L.k.s.i.) W H H i.i.R 7 8 <                                                             ",
"                        =.S.M.n.G.K.V.l.y.r.u.i.y.! Y f U P 4                                                                   ",
"                        M.P.M.n.B.k.p.s.i.i.i.u.y.y.Q a ,                                               %X|.                    ",
"                        =.J.F.-.Q s.i.i.i.g.i.i.u.y.W 3                                             OXD n -                     ",
"                        x J.m.U Y y.i.i.a.i.i.p.u.u.Y                                         $X@XoXS V m =                     ",
"                          [ i.E H ! i.i.i.i.i.i.y.u.g.                                  $X#X+X.X[._.).Z b                       ",
"                          L a.! G R i.i.g.a.i.i.u.u.g.c.                          $XOXoXXX{.[.[.[.].).Z -                       ",
"                          4 ! y.U U i.g.d.a.i.i.u.u.u.g.v.{ 0XjX    7XcXxXyX$X+XXX}.A N A [.}.[.[.[.'.n                         ",
"                            s y.R d W y.i.a.d.a.u.u.u.u.T =X5XkXcXcX5X4X+X.X(.[.[.].).A V ).[.[.[.{.Z 1                         ",
"                              F ! H J g.i.i.d.d.a.u.t.t.-XqX<X5XgXfX%Xb /. X{. X{.[._.).S Z _.}.}._.6                           ",
"                              < H Y G R i.i.h.a.r.i.=XrXgXtX7X<X:X|./.; V }.{.}.}.{.].]._.).).}._.b                             ",
"                                w a d U ( u.r.h.3XaXjXdXpXaXtX} B '.}.n m `.{.{.{. X}.`._.).'.A 6                               ",
"                                  w : d ~ t.j.9XcXhXfXpXgXjX:Xn n ).}.A ; Z {.{.{.{.{.].[._.V 6                                 ",
"                                      1 d 3XsXaXpXgXjXjX8X#X/.V n A ]._.b b ]. X X{. X X).M 5                                   ",
"                                        2 } 5X8XiXhXaX$X]./.).A n V ].].N m S {..X X}.V 6 w                                     ",
"                                            9 ' E.4X}.(.(.[.].).N n }.].Z n N _.).C 6 w                                         ",
"                                                , = M M C V A A N n Z Z n - - 6 <                                               ",
"                                                        < < 5 5 5 5 5 5 1 w                                                     ",
"                                                                                                                                ",
"                                                                                                                                ",
"                                                                                                                                "
};
