/* XPM */
static char *c3844dd3f813488ef2f19d3f3a9f0574[] = {
/* columns rows colors chars-per-pixel */
"16 16 85 1 ",
"  c None",
". c #0A0D17",
"X c #191919",
"o c #1B1B1B",
"O c #1E1C1C",
"+ c #252014",
"@ c #1F1F29",
"# c #13513E",
"$ c #5B4920",
"% c #5C4A23",
"& c #131A5F",
"* c #1B2059",
"= c #202451",
"- c #20255E",
"; c #162077",
": c #252F7D",
"> c #155948",
", c #165A49",
"< c #1F5E4B",
"1 c #0E6B4E",
"2 c #19674F",
"3 c #0D6B5A",
"4 c #1D6650",
"5 c #1C6951",
"6 c #1F6F55",
"7 c #136F59",
"8 c #147058",
"9 c #1A705A",
"0 c #206A54",
"q c #2C6E59",
"w c #366757",
"e c #26785F",
"r c #127D65",
"t c #267E63",
"y c #317663",
"u c #936D1C",
"i c #9F4536",
"p c #A74032",
"a c #947223",
"s c #987521",
"d c #C64D3A",
"f c #AD4D40",
"g c #CE5542",
"h c #C97C74",
"j c #2B845F",
"k c #178165",
"l c #1A8768",
"z c #188969",
"x c #1B8B69",
"c c #0D8B74",
"v c #148E74",
"b c #1B9370",
"n c #1F9775",
"m c #218869",
"M c #328069",
"N c #3E9467",
"B c #2B9A79",
"V c #49844F",
"C c #598E58",
"Z c #768E41",
"A c #68A45B",
"S c #5B8679",
"D c #848A36",
"F c #BE9425",
"G c #B39628",
"H c #BCA834",
"J c #C2962E",
"K c #C1B03A",
"L c #D1847A",
"P c #202A81",
"I c #222D85",
"U c #27349E",
"Y c #28359A",
"T c #2C3AA6",
"R c #3E4790",
"E c #3C4798",
"W c #3340A3",
"Q c #869F9B",
"! c #8AB19C",
"~ c #9C98A7",
"^ c #B5B0AC",
"/ c #C8B3AE",
"( c #B3C0BD",
") c #9998C5",
"_ c #CAC4C2",
/* pixels */
"                ",
"                ",
"           f    ",
"         hdg    ",
"       tS_Li    ",
"     C3l1MQ  p  ",
"    $GZ69   ^/  ",
"   o.+s   qmey  ",
"   oO   JN82b#  ",
"     @aKV7n5<   ",
"    %FDkv40     ",
"   uHAr,        ",
"    jcx    EW-  ",
"    ,xB!~RTUI   ",
"     w()P;Y:    ",
"       &*=      "
};
