/* XPM */
static char *b35df1b3f9fa4c3b9be2eef2f44b6f4f[] = {
/* columns rows colors chars-per-pixel */
"32 32 181 2 ",
"   c None",
".  c #00010D",
"X  c #0B0D13",
"o  c #151515",
"O  c #191919",
"+  c #322D1A",
"@  c #282517",
"#  c #121623",
"$  c #1F242F",
"%  c #1F362D",
"&  c #232323",
"*  c #2C2920",
"=  c #23322D",
"-  c #252839",
";  c #273B35",
":  c #33353C",
">  c #433716",
",  c #592C25",
"<  c #0D4E39",
"1  c #194A39",
"2  c #0D563E",
"3  c #16513D",
"4  c #19513E",
"5  c #24493D",
"6  c #2B593C",
"7  c #56491D",
"8  c #54503C",
"9  c #674F23",
"0  c #786423",
"q  c #0E165E",
"w  c #161C59",
"e  c #141846",
"r  c #19205E",
"t  c #222542",
"y  c #24274B",
"u  c #242958",
"i  c #131E7D",
"p  c #1B236C",
"a  c #1F2879",
"s  c #242D7A",
"d  c #2B3378",
"f  c #1E4E42",
"g  c #135442",
"h  c #1C5442",
"j  c #135946",
"k  c #1A5C48",
"l  c #254E42",
"z  c #295748",
"x  c #1A644C",
"c  c #1A684F",
"v  c #11654B",
"b  c #0B6554",
"n  c #1D6751",
"m  c #1C6C53",
"M  c #156854",
"N  c #0E7156",
"B  c #1B7156",
"V  c #1B765A",
"C  c #1B7A5E",
"Z  c #167A5E",
"A  c #0A6549",
"S  c #216753",
"D  c #336856",
"F  c #24735A",
"G  c #2D7B56",
"H  c #3C754A",
"J  c #1C7D60",
"K  c #117B64",
"L  c #2B7D63",
"P  c #665C5E",
"I  c #726B51",
"U  c #4A7063",
"Y  c #5C6266",
"T  c #687C75",
"R  c #883227",
"E  c #833D32",
"W  c #933D31",
"Q  c #B13C2B",
"!  c #90721E",
"~  c #8B6B1D",
"^  c #9A473A",
"/  c #AD4737",
"(  c #8A752D",
")  c #C9523F",
"_  c #C24835",
"`  c #985046",
"'  c #B75548",
"]  c #A55F56",
"[  c #A85449",
"{  c #CA5441",
"}  c #D35A46",
"|  c #C86455",
" . c #D26858",
".. c #D17364",
"X. c #0E896A",
"o. c #1C8465",
"O. c #1D8B6B",
"+. c #17866A",
"@. c #1E906F",
"#. c #0E8971",
"$. c #1D9372",
"%. c #1F9B78",
"&. c #228466",
"*. c #2A8668",
"=. c #329365",
"-. c #359276",
";. c #5A8D4D",
":. c #458C58",
">. c #45915B",
",. c #7E9D49",
"<. c #4D917B",
"1. c #BD8A1C",
"2. c #8B802C",
"3. c #8E8F36",
"4. c #999839",
"5. c #A18222",
"6. c #B08227",
"7. c #B9962B",
"8. c #AA9F34",
"9. c #B99330",
"0. c #B7A434",
"q. c #C79923",
"w. c #CCA52A",
"e. c #CAA429",
"r. c #D9AC29",
"t. c #E2AF26",
"y. c #E5B62A",
"u. c #EDBB29",
"i. c #F0BD2A",
"p. c #829844",
"a. c #9BA340",
"s. c #93A55B",
"d. c #AA837E",
"f. c #8EAE72",
"g. c #CAAB45",
"h. c #1B278C",
"j. c #212C84",
"k. c #232E8B",
"l. c #2B3589",
"z. c #323C8A",
"x. c #222E90",
"c. c #26339C",
"v. c #263397",
"b. c #2937A3",
"n. c #2838AB",
"m. c #3744A3",
"M. c #4E5591",
"N. c #767996",
"B. c #4350AB",
"V. c #545DA8",
"C. c #5662B1",
"Z. c #4F9281",
"A. c #549F87",
"S. c #7F9993",
"D. c #4EA48B",
"F. c #76A799",
"G. c #7DAFA1",
"H. c #78B3A2",
"J. c #848383",
"K. c #94A39F",
"L. c #99A19F",
"P. c #9DA1BE",
"I. c #A7AAA9",
"U. c #B5AEAF",
"Y. c #B6B3AF",
"T. c #A3B7B1",
"R. c #BBBBB9",
"E. c #CB9D96",
"W. c #D2B1AC",
"Q. c #9ECABE",
"!. c #C8C6B6",
"~. c #9FA4C7",
"^. c #BECAC5",
"/. c #C9C8CB",
"(. c #CFCFD6",
"). c #D1CFD2",
"_. c #D6D7D9",
"`. c #E3DEDF",
"'. c #EAE2DB",
"]. c #DEDEE0",
"[. c #EDE4E6",
/* pixels */
"                                                                ",
"                                                                ",
"                                                                ",
"                                              [                 ",
"                                            ' R                 ",
"                                          | ) R                 ",
"                                    | ' } ) { W                 ",
"                                /.).E./ Q { } E                 ",
"                          <.*.B U R._.R.' ) /       W           ",
"                    Z.D F $.V V 2 k G.).).J.,     ^ R           ",
"                  s.&.N 1 C O.C B 3 A D.I.Y       { Q           ",
"                9.w.8.G b g &.o.C B 4 k         W... .`         ",
"              & > ~ y.e.;.j x $.C k =         L.).].[.U.        ",
"            & o X X 7 e.t.3.1 f ;         A.*.F T K.Q.S.        ",
"          & O O O o . + 0 9           <.D &.+.Z v < N k         ",
"          O O O O O O             f.-.*.j 4 o.o.o.m 4           ",
"          o O o &           I g.6.0.=.o.V 1 x O.o.O.h           ",
"          o O           8 ( 7.u.5.6 +.O.o.m 1 V %.m             ",
"        O O         - O ! i.r.p.&.g n @.O.J x k S               ",
"                : # @ 5.1.4.:.K $.J 4 o.%.$.x =                 ",
"              $ * 0 r.u.2.M X.J %.%.m k S l                     ",
"              7 w.i.y.,.Z j O.J m S 5                           ",
"            ( q.w.a.>.#.O.M k 5                                 ",
"            7.w.H #.#.O.&.n                       M.u           ",
"              :.b o.@.O.O.L                 V.B.b.x.e           ",
"              M B C @.@.+.O.G K.  !.~.C.m.l.k.c.c.l.            ",
"                c M @.$.X.o.F.Y.(.N.l.n.c.k.s k.c.u             ",
"                ; 3 o.*.H.^.'.I.d i w c.c.c.v.k.u               ",
"                    z T.'.`.P.z.q x.w j.n.n.s t                 ",
"                      P J.V.h.h.p j.p r s u                     ",
"                            t y t t -                           ",
"                                                                "
};
